<?xml version="1.0" encoding="utf-8"?>
<!-- Generator: Adobe Illustrator 18.1.1, SVG Export Plug-In . SVG Version: 6.00 Build 0)  -->
<svg version="1.1" xmlns="http://www.w3.org/2000/svg" xmlns:xlink="http://www.w3.org/1999/xlink" x="0px" y="0px"
	 viewBox="0 0 100 100" enable-background="new 0 0 100 100" xml:space="preserve">
<g id="outline">
	<g opacity="0.75">
		<path fill="#231815" d="M25,83.5c-11-0.7-16.5-9.6-12.3-19.8l2.7-6.5C19.6,47,28.5,31.6,35.3,23l2.3-3c6.8-8.7,17.9-8.7,24.7,0
			l2.3,3c6.8,8.7,15.8,24.1,20,34.2l2.7,6.5C91.6,73.9,86,82.8,75,83.5L70,83.9c-11,0.7-28.9,0.7-39.9,0L25,83.5z"/>
	</g>
</g>
<g id="inside_fill">
	<path fill="none" stroke="#FFFFFF" stroke-miterlimit="10" d="M25.7,36c0,0,13,6.2,23,18.7c10.5,13.1,13.8,30,13.8,30"/>
	<path fill="none" stroke="#FFFFFF" stroke-miterlimit="10" d="M19,47.2c4.7,3,11.4,8.1,17.1,15.3c6.1,7.7,9.8,16.6,11.8,22.7"/>
	<path fill="none" stroke="#FFFFFF" stroke-miterlimit="10" d="M13.6,59.2c4.1,3,8.9,7.2,13.1,12.5c3.6,4.5,6.4,9.5,8.5,14.1"/>
	<path fill="none" stroke="#FFFFFF" stroke-miterlimit="10" d="M49.5,55.2c0,0,5.5-7.2,11.2-11.2c4.4-3.2,13.9-7.7,13.9-7.7"/>
	<path fill="none" stroke="#FFFFFF" stroke-miterlimit="10" d="M56.2,67.5c0,0,5.5-7.2,11.2-11.2c4.4-3.2,13.9-7.7,13.9-7.7"/>
	<path fill="none" stroke="#FFFFFF" stroke-miterlimit="10" d="M61.6,80.3c0,0,5.5-7.2,11.2-11.2c4.4-3.2,14.2-7.8,14.2-7.8"/>
	<circle fill="#FFFFFF" cx="41" cy="31.6" r="4"/>
	<circle fill="#FFFFFF" cx="59" cy="31.6" r="4"/>
</g>
</svg>
